<svg width="32" height="32" viewBox="0 0 32 32" fill="none" xmlns="http://www.w3.org/2000/svg">
<path d="M12 2.66663H4.00002C3.6464 2.66663 3.30726 2.8071 3.05721 3.05715C2.80716 3.3072 2.66669 3.64634 2.66669 3.99996V12C2.66669 12.3536 2.80716 12.6927 3.05721 12.9428C3.30726 13.1928 3.6464 13.3333 4.00002 13.3333H12C12.3536 13.3333 12.6928 13.1928 12.9428 12.9428C13.1929 12.6927 13.3334 12.3536 13.3334 12V3.99996C13.3334 3.64634 13.1929 3.3072 12.9428 3.05715C12.6928 2.8071 12.3536 2.66663 12 2.66663ZM12 18.6666H4.00002C3.6464 18.6666 3.30726 18.8071 3.05721 19.0571C2.80716 19.3072 2.66669 19.6463 2.66669 20V28C2.66669 28.3536 2.80716 28.6927 3.05721 28.9428C3.30726 29.1928 3.6464 29.3333 4.00002 29.3333H12C12.3536 29.3333 12.6928 29.1928 12.9428 28.9428C13.1929 28.6927 13.3334 28.3536 13.3334 28V20C13.3334 19.6463 13.1929 19.3072 12.9428 19.0571C12.6928 18.8071 12.3536 18.6666 12 18.6666ZM28 2.66663H20C19.6464 2.66663 19.3073 2.8071 19.0572 3.05715C18.8072 3.3072 18.6667 3.64634 18.6667 3.99996V12C18.6667 12.3536 18.8072 12.6927 19.0572 12.9428C19.3073 13.1928 19.6464 13.3333 20 13.3333H28C28.3536 13.3333 28.6928 13.1928 28.9428 12.9428C29.1929 12.6927 29.3334 12.3536 29.3334 12V3.99996C29.3334 3.64634 29.1929 3.3072 28.9428 3.05715C28.6928 2.8071 28.3536 2.66663 28 2.66663Z" fill="white" stroke="white" stroke-width="2" stroke-linejoin="round"/>
<path d="M18.6667 18.6666H29.3334H18.6667ZM24 24H29.3334H24ZM18.6667 29.3333H29.3334H18.6667Z" fill="white"/>
<path d="M18.6667 18.6666H29.3334M24 24H29.3334M18.6667 29.3333H29.3334" stroke="white" stroke-width="2" stroke-linecap="round" stroke-linejoin="round"/>
</svg>
